# xmcd
# 
# Track frame offsets:
#     150
#     23394
#     46602
#     71267
#     92117
#     119844
#     145299
#     166510
#     185797
#     203614
#     231004
#     243979
#     269223
# 
# Disc length: 3792
# 
# Revision: 5
# Processed by: cddbd v1.5.2PL0 Copyright (c) Steve Scherf et al.
# Submitted via: fre:ac v1.0.17
# 
DISCID=ae0ece0d
DTITLE=Walter Trout And The Radicals - Go The Distance
DYEAR=2001
DGENRE=Blues/Rock
TTITLE0=Love So Deep
TTITLE1=Outta Control
TTITLE2=Lookin' For The Promised Land
TTITLE3=Ride 'Till I'm Satisfied
TTITLE4=Go The Distance
TTITLE5=Message On The Doorway
TTITLE6=Faithful
TTITLE7=Down To You
TTITLE8=Bugle Billy
TTITLE9=Gotta Leave This Town
TTITLE10=I Don't Want My MTV
TTITLE11=Doin' Just Fine
TTITLE12=Always Been A Dreamer
EXTD=
EXTT0=
EXTT1=
EXTT2=
EXTT3=
EXTT4=
EXTT5=
EXTT6=
EXTT7=
EXTT8=
EXTT9=
EXTT10=
EXTT11=
EXTT12=
PLAYORDER=
